<svg width="151" height="72" viewBox="0 0 151 72" fill="none" xmlns="http://www.w3.org/2000/svg">
<g clip-path="url(#clip0_16_447)">
<path d="M33.4432 39.3195C34.0233 39.3297 34.5998 39.2341 35.1391 39.0382C35.6783 38.8423 36.1694 38.5502 36.5836 38.1789C36.9978 37.8076 37.3268 37.3645 37.5514 36.8756C37.7761 36.3867 37.8917 35.8618 37.8917 35.3316C37.8917 34.8013 37.7761 34.2764 37.5514 33.7875C37.3268 33.2986 36.9978 32.8555 36.5836 32.4842C36.1694 32.1129 35.6783 31.8208 35.1391 31.6249C34.5998 31.4291 34.0233 31.3334 33.4432 31.3436C32.3002 31.3636 31.2114 31.7925 30.4109 32.5383C29.6103 33.284 29.1618 34.2869 29.1618 35.3316C29.1618 36.3762 29.6103 37.3791 30.4109 38.1249C31.2114 38.8706 32.3002 39.2995 33.4432 39.3195Z" fill="#F8F9FA"/>
<path d="M33.4432 44.4753C27.3123 44.4753 21.9507 43.8149 17.9398 42.56C15.3471 41.7488 13.1262 40.6681 11.5655 39.4337C9.88293 38.1276 9 36.7175 9 35.3323C9 32.6966 12.1712 30.1121 17.48 28.4209C21.8289 27.0312 27.5014 26.2684 33.4432 26.2684C39.2711 26.2684 44.8635 27.0093 49.1948 28.3799C51.725 29.1764 53.8611 30.2058 55.3705 31.3582C57.0162 32.6116 57.8863 33.9866 57.8863 35.3337C57.8863 38.0734 54.3418 40.8497 48.634 42.5776C44.5911 43.8017 39.1958 44.4753 33.4432 44.4753ZM33.4432 28.1866C27.8139 28.1866 22.2455 28.9275 18.1674 30.2307C14.6549 31.3538 11.0911 33.3701 11.0911 35.3411C11.0911 36.1332 11.7353 37.0689 12.9131 37.9973C14.2847 39.0735 16.2573 40.0312 18.6145 40.7662C22.4122 41.9509 27.5271 42.5776 33.4432 42.5776C38.9795 42.5776 44.1408 41.9391 47.977 40.7765C53.3499 39.1497 55.8112 36.8273 55.8112 35.3469C55.8112 34.606 55.1863 33.7055 54.0485 32.8371C52.7314 31.8326 50.8229 30.9189 48.5314 30.1985C44.4084 28.9055 39.0548 28.1924 33.4528 28.1924L33.4432 28.1866Z" fill="#F8F9FA"/>
<path d="M23.5274 55.229C22.7127 55.2471 21.9075 55.0666 21.1943 54.7063C18.6946 53.3899 17.8293 49.59 18.8772 44.5397C19.7361 40.3987 21.8481 35.5285 24.819 30.8296C27.7193 26.2098 31.2302 22.1581 34.6818 19.4111C36.7025 17.8063 38.7343 16.629 40.5915 16.0066C42.6009 15.3316 44.3411 15.3316 45.6151 16.0066C48.2158 17.3772 49.0763 21.5709 47.8632 26.9507C47.0043 30.7579 44.9484 35.366 42.0849 39.9272C39.0227 44.7813 35.717 48.6939 32.525 51.2432C30.4418 52.892 28.3106 54.0986 26.3621 54.7355C25.4542 55.044 24.4959 55.2109 23.5274 55.229ZM25.7163 31.307L26.6185 31.7829C23.8095 36.2255 21.7311 41.0152 20.9267 44.8955C20.2297 48.2444 20.3659 52.0676 22.2343 53.0399C23.6396 53.7808 27.0239 53.0794 31.1469 49.7921C34.169 47.3775 37.3242 43.6348 40.2726 38.9593C43.0384 34.5796 45.0109 30.1707 45.8266 26.5524C46.3506 24.2389 46.4675 22.1376 46.1615 20.4786C45.8907 19.0524 45.3507 18.0479 44.5815 17.6481C43.8716 17.2733 42.7115 17.326 41.3238 17.7916C39.7038 18.3334 37.8962 19.3877 36.0647 20.8476C32.7701 23.4657 29.4179 27.3402 26.6201 31.7829L25.7163 31.307Z" fill="#F8F9FA"/>
<path d="M43.3557 55.2466C40.9905 55.2466 37.9844 53.939 34.8565 51.4804C31.3616 48.7305 27.7963 44.632 24.8206 39.9272C21.901 35.325 19.8067 30.5236 18.9301 26.4177C18.4174 24.0163 18.3196 21.8096 18.6593 20.0393C19.0183 18.1094 19.8852 16.7271 21.1623 16.0594C23.7582 14.6829 28.1648 16.0989 32.658 19.7435C35.8452 22.3294 39.1862 26.2596 42.0673 30.8076C45.1375 35.6632 47.1998 40.2303 48.0091 44.0301C48.5491 46.4989 48.6276 48.7876 48.2494 50.6458C47.8472 52.6196 46.9483 54.0327 45.6439 54.7224C44.9448 55.0779 44.1556 55.2587 43.3557 55.2466ZM26.6297 38.9784C29.45 43.4225 32.9432 47.4566 36.2169 50.0337C39.0452 52.255 42.7387 54.0605 44.6055 53.0721C46.0077 52.3312 47.0364 49.303 45.9564 44.4035C45.1792 40.8087 43.2002 36.4378 40.2438 31.7668C37.4957 27.3915 34.294 23.6385 31.2831 21.1697C29.349 19.6 27.4149 18.4549 25.6923 17.8707C24.2101 17.364 22.9746 17.3055 22.2183 17.7081C21.5068 18.083 20.9764 19.026 20.7248 20.36C20.4332 21.9062 20.5261 23.8728 20.9956 26.037C21.8289 29.9423 23.8367 34.5299 26.6425 38.9623L26.6297 38.9784Z" fill="#F8F9FA"/>
<path fill-rule="evenodd" clip-rule="evenodd" d="M80.3809 35.1668C82.0923 33.2486 82.1708 31.1137 81.2366 28.9817C80.304 26.8482 78.3587 25.8525 75.9455 25.7822C74.0226 25.7339 72.0676 25.75 70.1223 25.7661C69.1529 25.7734 68.1882 25.7807 67.2316 25.7807H66.6868V44.1971H69.0215V37.2285H72.6782C73.1445 37.2285 73.5338 37.3706 73.7678 37.7264L78.4356 44.3391C78.5141 44.4811 78.7465 44.6949 78.9019 44.6949H81.9369C80.1135 42.1247 78.2723 39.5651 76.4134 37.0162C78.0478 36.8024 79.4467 36.3046 80.3809 35.1668ZM99.1323 35.9488C97.8889 30.9716 92.9086 29.6919 89.0949 31.2572C86.1384 32.4652 84.8164 34.811 84.7379 37.7264C84.661 39.9301 85.3612 41.9216 87.228 43.4151C89.3288 45.121 91.8959 45.3334 94.5414 44.9087C96.0205 44.6232 97.3425 43.9833 98.3552 42.9876C97.9846 42.5014 97.5949 42.0277 97.187 41.5672C95.0077 43.2731 92.5977 43.8412 89.9521 42.7035C88.2392 41.9216 87.3835 40.0019 87.228 38.5801H99.2878V37.6561C99.3663 37.0162 99.2878 36.4466 99.1323 35.9488ZM107.692 30.6876C108.859 30.6158 110.104 30.6876 111.271 30.9014C113.45 31.3275 114.772 32.6072 114.772 34.669C114.825 36.8917 114.807 39.2126 114.788 41.3637C114.78 42.3799 114.772 43.3566 114.772 44.2674H112.593V43.3449C112 43.6421 111.564 43.9101 111.192 44.1385C110.59 44.509 110.155 44.7755 109.481 44.9087C108.082 45.1928 106.603 45.1928 105.279 44.6949C103.18 43.913 102.09 42.2774 102.246 40.0736C102.401 38.1525 103.723 36.6604 105.824 36.1625C108.082 35.6647 110.183 35.9487 112.049 37.3706C112.126 37.4423 112.205 37.5141 112.439 37.5141C112.416 37.2095 112.407 36.9064 112.397 36.6062C112.373 35.8477 112.349 35.0965 112.126 34.3849C111.739 33.1051 110.415 32.679 109.014 32.6072C107.225 32.4652 105.745 33.0334 104.502 34.1008C104.328 34.1977 104.171 34.3176 104.036 34.4566C103.767 34.1301 103.55 33.827 103.34 33.5341C103.185 33.316 103.034 33.1036 102.868 32.8913C104.191 31.6115 105.826 30.8296 107.692 30.6876ZM124.498 32.821C126.522 32.2514 128.389 32.6073 129.79 34.1711L130.024 34.3131C130.307 34.092 130.568 33.8695 130.844 33.6366C131.096 33.4243 131.358 33.2017 131.656 32.9631C131.472 32.7947 131.384 32.6702 131.28 32.5194C131.25 32.4772 131.221 32.4352 131.19 32.3935C128.934 30.1897 124.498 29.9042 121.774 31.6833C117.962 34.2429 118.041 39.22 119.908 41.8513C121.697 44.3391 124.266 45.1928 127.299 44.837C129.089 44.6232 130.568 43.8413 131.735 42.4912C131.19 42.0636 130.645 41.6375 130.101 41.1396C129.945 41.2817 129.868 41.3534 129.79 41.4955C127.689 43.6275 124.188 43.4137 122.319 41.1396C121.23 39.7881 120.997 38.2257 121.31 36.6589C121.464 34.8827 122.476 33.4609 124.498 32.821ZM140.449 42.6317C140.449 42.6317 140.527 42.5615 140.683 42.4912C140.917 42.989 141.149 43.4869 141.383 43.9115C141.383 43.9848 141.305 44.2688 141.149 44.3391C140.138 45.121 137.88 45.2631 136.715 44.6232C135.626 44.055 135.315 43.0593 135.315 41.9216V32.8225H132.825C132.825 32.5589 132.813 32.3451 132.804 32.1548C132.788 31.8282 132.775 31.572 132.825 31.2586C132.825 31.1151 133.057 30.9731 133.212 30.9731H135.236V27.1323H137.571V30.6876H140.683V32.821H137.726C137.673 33.294 137.657 33.3262 137.651 33.3365C137.648 33.3423 137.648 33.3423 137.648 33.3892V41.4955C137.726 42.0636 137.803 42.6332 138.504 42.9158C139.204 43.1296 139.827 43.0593 140.449 42.6332V42.6317ZM69.0215 27.9874V35.0263C69.8387 35.0263 70.5966 35.035 71.3177 35.0438C72.6605 35.0585 73.8752 35.0731 75.0898 35.0263C77.1905 34.956 78.9035 33.4624 78.9035 31.5412C78.9035 29.623 77.4245 28.1295 75.3237 28.0577C73.9777 27.9508 72.59 27.9655 71.2248 27.9786C70.7713 27.983 70.3226 27.9874 69.8772 27.9874H69.0215ZM92.0529 32.6805C89.4842 32.6805 87.1495 34.956 87.3835 37.088H96.9547C96.8761 34.2443 95.0093 32.6087 92.0513 32.6805H92.0529ZM112.343 40.2874C112.352 40.3592 112.36 40.4295 112.36 40.5012C112.36 41.9948 111.971 42.4926 110.415 43.0608C109.325 43.4166 108.159 43.5586 106.992 43.2028C105.669 42.847 104.736 41.781 104.736 40.573C104.657 39.3635 105.513 38.154 106.835 37.7996C108.625 37.23 110.259 37.5858 111.738 38.5815C112.205 38.9374 112.516 39.2917 112.36 39.8613C112.32 40.0005 112.313 40.1461 112.343 40.2874Z" fill="#F8F9FA"/>
</g>
<defs>
<clipPath id="clip0_16_447">
<rect width="133" height="41" fill="white" transform="translate(9 15.5)"/>
</clipPath>
</defs>
</svg>
