<svg width="151" height="72" viewBox="0 0 151 72" fill="none" xmlns="http://www.w3.org/2000/svg">
<g clip-path="url(#clip0_16_415)">
<path d="M94.1814 4H56.1704C49.1727 4 43.5 9.67271 43.5 16.6704V54.6814C43.5 61.6791 49.1727 67.3518 56.1704 67.3518H94.1814C101.179 67.3518 106.852 61.6791 106.852 54.6814V16.6704C106.852 9.67271 101.179 4 94.1814 4Z" fill="#303947"/>
<path d="M99.907 49.5057C99.459 46.734 97.6506 44.4021 92.2926 42.2326C90.4596 41.3859 88.4132 40.7803 87.7667 39.4101C87.532 38.8263 87.485 38.1839 87.6321 37.5721C88.0292 35.9606 89.9525 35.4585 91.4819 35.9212C92.3988 36.2379 93.1749 36.867 93.6744 37.6985C93.7576 37.8253 93.8874 37.9143 94.0357 37.9462C94.184 37.9782 94.3389 37.9505 94.467 37.8691C96.3443 36.6581 96.6413 36.471 97.8869 35.68C97.9521 35.6375 98.0084 35.5825 98.0523 35.5182C98.0962 35.4539 98.127 35.3815 98.1429 35.3053C98.1587 35.229 98.1594 35.1504 98.1447 35.0739C98.1301 34.9974 98.1004 34.9245 98.0575 34.8595C97.7293 34.3344 97.347 33.8421 96.917 33.3957C95.3334 31.6365 93.2083 30.7307 89.79 30.7947H89.7195L88.0013 31.0162H87.9226C86.2192 31.4544 84.6028 32.3504 83.6493 33.55C80.7743 36.8123 81.5948 42.5297 85.0934 44.8812C88.5478 47.4708 93.6153 48.0484 94.2602 50.4804C94.8904 53.4343 92.1072 54.3959 89.3273 54.0677C89.3039 54.0714 89.2801 54.0714 89.2567 54.0677C87.3859 53.6722 86.275 52.7565 85.1541 51.15C85.0695 51.025 84.9402 50.9371 84.7928 50.9045C84.6454 50.8718 84.4911 50.8968 84.3615 50.9744C82.691 51.9426 82.4218 52.1001 80.7004 53.0897C80.5669 53.1658 80.4686 53.2915 80.4269 53.4394C80.3851 53.5874 80.4032 53.7459 80.4772 53.8806C80.9843 54.711 81.5866 55.4757 82.2758 56.1617L82.3037 56.1945C86.718 60.6482 97.7129 60.4185 99.6887 53.6673C100.11 52.3217 100.186 50.889 99.907 49.5057ZM77.2986 31.1541H72.7857C72.7088 31.1534 72.6325 31.168 72.5613 31.197C72.49 31.226 72.4252 31.2688 72.3706 31.3229C72.316 31.3771 72.2726 31.4415 72.2431 31.5125C72.2135 31.5835 72.1983 31.6597 72.1983 31.7366L72.1753 45.856C72.1753 48.9805 72.3377 51.8458 71.8307 52.7253C71.0102 54.4238 68.9096 54.2466 67.907 53.9134L67.7954 53.8888C66.8272 53.3982 66.3267 52.7007 65.7441 51.7358C65.6658 51.6044 65.539 51.5091 65.391 51.4704C65.243 51.4317 65.0857 51.4528 64.9531 51.529L61.2854 53.7707C61.1559 53.8507 61.0623 53.9776 61.0241 54.125C60.9858 54.2723 61.006 54.4288 61.0803 54.5617C61.8059 55.9232 62.8716 57.0736 64.1736 57.9011C66.3349 59.1975 69.2362 59.5996 72.2737 58.9104H72.3246C74.3053 58.3278 75.9956 57.1364 76.8867 55.3231C78.1814 52.9469 77.9041 50.0488 77.8926 46.8538C77.9205 41.8322 77.8926 36.8107 77.8926 31.7793C77.8973 31.6986 77.8854 31.6178 77.8577 31.5418C77.8299 31.4659 77.7868 31.3965 77.7311 31.3379C77.6754 31.2793 77.6083 31.2327 77.5339 31.2011C77.4595 31.1695 77.3794 31.1535 77.2986 31.1541Z" fill="#F8F9FA"/>
</g>
<defs>
<clipPath id="clip0_16_415">
<rect width="64" height="64" fill="white" transform="translate(43.5 4)"/>
</clipPath>
</defs>
</svg>
