<svg width="151" height="72" viewBox="0 0 151 72" fill="none" xmlns="http://www.w3.org/2000/svg">
<path d="M74.2855 7.21067L49.068 16.0838C48.8224 16.1711 48.6138 16.3394 48.4765 16.5609C48.3392 16.7824 48.2812 17.0441 48.3122 17.3029L52.3137 50.4701C52.3341 50.6497 52.3967 50.822 52.4962 50.973C52.5958 51.1239 52.7296 51.2492 52.8867 51.3387L74.1362 63.0141C74.306 63.1072 74.4965 63.156 74.6901 63.156C74.8837 63.156 75.0742 63.1072 75.244 63.0141L96.6017 51.1771C96.7605 51.0899 96.8962 50.9659 96.9974 50.8156C97.0987 50.6654 97.1626 50.4931 97.1838 50.3131L101.184 17.1429C101.214 16.8822 101.155 16.6189 101.015 16.3965C100.876 16.1741 100.665 16.0058 100.417 15.9192L75.0398 7.20762C74.7954 7.12239 74.5292 7.12346 74.2855 7.21067Z" stroke="#303947" stroke-width="0.55" stroke-miterlimit="10"/>
<path d="M97.58 17.8621L74.601 10.0388V60.416L94.1392 49.603C94.3308 49.4964 94.4945 49.3462 94.6173 49.1646C94.7402 48.9831 94.8186 48.7752 94.8463 48.5577L98.5095 19.3828C98.5573 19.0604 98.4903 18.7314 98.3201 18.4535C98.1499 18.1755 97.8874 17.9661 97.5785 17.8621H97.58Z" fill="#606775"/>
<path d="M51.2989 19.4758L54.6695 48.6705C54.6961 48.891 54.775 49.102 54.8996 49.2859C55.0241 49.4699 55.1908 49.6214 55.3857 49.728L74.5994 60.3886V10.0114L52.2116 18.0023C51.9151 18.1083 51.6632 18.3118 51.4972 18.5794C51.3311 18.847 51.2622 19.163 51.2989 19.4758Z" fill="#303947"/>
<path d="M80.3929 37.2053L74.6512 39.8903H68.6002L65.7522 47.0065L60.4615 47.1025L74.6512 15.5398L80.3929 37.2053ZM79.8368 35.8491L74.6893 25.6594L70.4653 35.6708H74.6512L79.8368 35.8507V35.8491Z" fill="#F1F2F5"/>
<path d="M74.6512 15.5398L74.6893 25.6579L79.4802 35.6724H74.6619V39.872H81.3255L84.4554 47.0689L89.5175 47.1619L74.6512 15.5398Z" fill="white"/>
<path d="M74.6512 15.5398L74.6893 25.6579L79.4802 35.6724H74.6619V39.872H81.3255L84.4554 47.0689L89.5175 47.1619L74.6512 15.5398Z" fill="#F8F9FA"/>
</svg>
