<svg width="151" height="72" viewBox="0 0 151 72" fill="none" xmlns="http://www.w3.org/2000/svg">
<g clip-path="url(#clip0_16_407)">
<path d="M94.1831 4H56.172C49.1744 4 43.5016 9.67271 43.5016 16.6704V54.6814C43.5016 61.6791 49.1744 67.3518 56.172 67.3518H94.1831C101.181 67.3518 106.853 61.6791 106.853 54.6814V16.6704C106.853 9.67271 101.181 4 94.1831 4Z" fill="#303947"/>
<path d="M100.609 51.2911C100.161 48.4915 98.3349 46.1432 92.9441 43.9524C91.0897 43.0991 89.0253 42.487 88.3722 41.1036C88.1387 40.5143 88.0923 39.8674 88.2393 39.2509C88.6413 37.6361 90.5827 37.1175 92.1203 37.5836C93.0469 37.9037 93.8312 38.5399 94.3357 39.3805C94.4209 39.5093 94.5532 39.5995 94.7042 39.6317C94.8552 39.664 95.0128 39.6356 95.1431 39.5528C97.0352 38.3434 97.3339 38.1415 98.5925 37.3374C98.659 37.2952 98.7163 37.2401 98.7611 37.1753C98.806 37.1106 98.8374 37.0376 98.8536 36.9605C98.8698 36.8835 98.8705 36.8039 98.8555 36.7266C98.8405 36.6493 98.8103 36.5758 98.7665 36.5104C98.4341 35.9803 98.0487 35.4854 97.6161 35.0334C96.0309 33.2611 93.8713 32.3471 90.4219 32.4111H90.3529L88.6216 32.6375H88.5396C86.8214 33.0806 85.1919 33.9848 84.2319 35.1959C81.3273 38.4878 82.1527 44.2544 85.6875 46.6273C89.1714 49.2414 94.2832 49.8355 94.9363 52.2757C95.5697 55.2542 92.762 56.2273 89.9574 55.9073H89.8852C87.9997 55.5036 86.8789 54.5846 85.7449 52.9584C85.6603 52.8371 85.5333 52.7519 85.389 52.7197C85.2447 52.6875 85.0936 52.7106 84.9654 52.7844L81.2699 54.9177C81.1329 54.9953 81.0321 55.1239 80.9897 55.2755C80.9473 55.4271 80.9666 55.5894 81.0434 55.7268C81.5537 56.5637 82.1626 57.335 82.8551 58.0258L82.8879 58.0587C87.3269 62.5502 98.435 62.3237 100.429 55.5085C100.845 54.1407 100.907 52.6895 100.609 51.2911ZM66.7041 38.1202H60.4502C60.3078 38.1202 60.1714 38.0637 60.0707 37.963C59.9701 37.8624 59.9135 37.7259 59.9135 37.5836V33.0544C59.9153 32.9132 59.9726 32.7784 60.073 32.6791C60.1735 32.5799 60.309 32.5243 60.4502 32.5243H79.8914C80.0303 32.5273 80.1626 32.584 80.2606 32.6825C80.3585 32.7811 80.4144 32.9138 80.4165 33.0527V37.5754C80.417 37.6465 80.4032 37.7169 80.3761 37.7826C80.349 37.8484 80.3091 37.908 80.2587 37.9581C80.2083 38.0082 80.1484 38.0478 80.0825 38.0745C80.0166 38.1012 79.9461 38.1145 79.875 38.1136H73.6079C73.4648 38.1141 73.3278 38.1711 73.2266 38.2722C73.1255 38.3734 73.0684 38.5105 73.068 38.6535V59.8457C73.0684 59.9166 73.0549 59.9868 73.0281 60.0524C73.0014 60.1179 72.962 60.1776 72.9121 60.2279C72.8622 60.2782 72.803 60.3182 72.7376 60.3455C72.6723 60.3729 72.6022 60.3871 72.5314 60.3873H67.7823C67.6386 60.3873 67.5009 60.3302 67.3993 60.2287C67.2978 60.1271 67.2407 59.9894 67.2407 59.8457V38.6601C67.2412 38.5894 67.2276 38.5194 67.2008 38.454C67.174 38.3886 67.1345 38.3292 67.0846 38.2791C67.0347 38.2291 66.9754 38.1894 66.9101 38.1624C66.8448 38.1354 66.7748 38.12 66.7041 38.1202Z" fill="#F8F9FA"/>
</g>
<defs>
<clipPath id="clip0_16_407">
<rect width="64" height="64" fill="white" transform="translate(43.5 4)"/>
</clipPath>
</defs>
</svg>
