<svg width="152" height="72" viewBox="0 0 152 72" fill="none" xmlns="http://www.w3.org/2000/svg">
<g clip-path="url(#clip0_16_438)">
<path fill-rule="evenodd" clip-rule="evenodd" d="M69.7813 20.3078H71.8842L81.2099 33.1459L90.7398 20.3078L103.7 4L82.4046 34.4945L93.3791 49.4994H91.1924L81.2084 35.8446L71.1832 49.4994H69.0377L80.0945 34.4945L69.7813 20.3078ZM48.2042 20.3078H68.0061V21.8621H50.0191V33.5543H66.9333V35.1086H50.0191V47.9467H68.2133V49.501H48.2042V20.3078ZM94.1623 20.3078V21.8621H104.52V49.4994H106.333V21.8606H116.731V20.3063H94.1638L94.1623 20.3078Z" fill="#F8F9FA"/>
<path d="M23.4286 20.3078H25.6991L56.9874 66.525L44.0564 49.4994L25.3257 22.5158L25.2434 49.4994H23.4286V20.3078Z" fill="#F8F9FA"/>
<path fill-rule="evenodd" clip-rule="evenodd" d="M125.97 47.5566C124.558 47.5566 123.608 46.8358 123.537 45.7097H124.518C124.6 46.3086 125.193 46.688 126.045 46.688C126.839 46.688 127.422 46.2811 127.422 45.7234C127.422 45.2434 127.052 44.9554 126.208 44.7589L125.387 44.5623C124.235 44.2956 123.71 43.747 123.71 42.8206C123.71 41.699 124.637 40.9539 126.027 40.9539C127.322 40.9539 128.267 41.7006 128.323 42.7596H127.362C127.267 42.1806 126.755 41.8179 126.014 41.8179C125.233 41.8179 124.712 42.1882 124.712 42.755C124.712 43.2046 125.047 43.4621 125.877 43.6541L126.578 43.8248C127.886 44.1265 128.425 44.6491 128.425 45.597C128.425 46.8008 127.48 47.5566 125.97 47.5566ZM118.331 45.7661C118.331 46.848 119.122 47.5566 120.274 47.5566C121.502 47.5566 122.243 46.8267 122.243 45.5604V41.1063H121.254V45.5558C121.254 46.2598 120.898 46.6347 120.265 46.6347C119.701 46.6347 119.316 46.2857 119.304 45.7661H118.331ZM116.549 47.4773C116.634 47.479 116.72 47.4633 116.799 47.4311C116.879 47.399 116.951 47.3511 117.011 47.2903C117.072 47.2295 117.119 47.1571 117.151 47.0774C117.183 46.9977 117.198 46.9124 117.196 46.8267C117.196 46.461 116.922 46.1775 116.549 46.1775C116.463 46.1759 116.378 46.1915 116.298 46.2236C116.219 46.2556 116.146 46.3034 116.086 46.364C116.025 46.4246 115.978 46.4968 115.945 46.5763C115.913 46.6558 115.898 46.741 115.899 46.8267C115.899 47.1924 116.178 47.4773 116.549 47.4773Z" fill="#F8F9FA"/>
</g>
<defs>
<clipPath id="clip0_16_438">
<rect width="105.143" height="64" fill="white" transform="translate(23.4286 4)"/>
</clipPath>
</defs>
</svg>
